<?xml version="1.0" standalone="no"?>
<!DOCTYPE svg PUBLIC "-//W3C//DTD SVG 20010904//EN"
 "http://www.w3.org/TR/2001/REC-SVG-20010904/DTD/svg10.dtd">
<svg version="1.0" xmlns="http://www.w3.org/2000/svg"
 width="180.000000pt" height="180.000000pt" viewBox="0 0 180.000000 180.000000"
 preserveAspectRatio="xMidYMid meet">
<metadata>
Created by potrace 1.14, written by Peter Selinger 2001-2017
</metadata>
<g transform="translate(0.000000,180.000000) scale(0.100000,-0.100000)"
fill="#000000" stroke="none">
<path d="M1281 1594 c-14 -10 -33 -14 -52 -10 -19 4 -29 1 -29 -7 0 -9 -18
-11 -65 -9 -41 2 -82 -2 -112 -12 -44 -15 -48 -19 -48 -49 0 -28 -7 -37 -52
-66 l-53 -35 20 -21 c11 -12 20 -29 20 -38 0 -19 -37 -37 -75 -37 -30 0 -84
-54 -113 -114 -12 -26 -29 -49 -37 -52 -8 -3 -38 7 -67 23 -42 22 -54 34 -56
56 -2 16 2 35 8 42 20 24 -18 32 -52 12 -17 -9 -49 -17 -73 -17 -35 0 -54 -8
-101 -43 -68 -50 -145 -132 -179 -191 -36 -64 -45 -134 -41 -322 4 -182 14
-222 65 -268 18 -16 21 -31 21 -92 0 -40 -4 -94 -9 -121 -6 -26 -15 -77 -20
-113 -6 -36 -14 -75 -17 -88 l-6 -22 135 0 135 0 6 33 c3 17 12 84 21 147 17
132 53 264 96 356 23 48 45 76 87 110 50 41 60 45 92 40 19 -3 47 -6 63 -6 20
0 31 -7 39 -25 6 -15 44 -45 87 -71 67 -40 81 -45 116 -39 22 3 51 12 65 20
23 13 19 14 -54 15 -66 0 -86 4 -121 25 -56 32 -118 124 -125 185 l-5 45 -49
-3 c-38 -3 -47 0 -43 10 7 19 36 129 40 153 2 14 15 -3 41 -55 46 -92 71 -119
149 -161 58 -31 63 -32 147 -26 51 3 116 15 159 30 60 20 71 21 66 8 -4 -9 -9
-43 -13 -76 -6 -71 -21 -86 -107 -114 -41 -14 -52 -20 -35 -21 39 -2 57 -7
105 -27 41 -16 46 -23 58 -68 37 -136 97 -418 97 -455 l0 -30 195 0 195 0 0
478 c0 349 -3 481 -12 490 -6 6 -12 39 -14 73 -1 34 -7 72 -12 83 -22 44 -31
88 -26 116 5 21 2 31 -14 39 -10 5 -25 24 -32 41 -7 16 -16 30 -19 30 -9 0
-56 108 -53 123 1 4 -8 7 -21 7 -13 0 -43 17 -67 39 -35 31 -50 38 -70 34 -17
-3 -31 1 -39 11 -8 9 -19 16 -26 16 -7 0 -18 7 -25 15 -16 20 -60 19 -89 -1z
m248 -170 c22 -31 31 -57 31 -85 0 -22 9 -57 20 -79 11 -22 20 -49 20 -61 0
-13 8 -32 19 -43 10 -12 23 -45 28 -73 l10 -53 -36 -5 c-52 -9 -97 -20 -170
-43 l-63 -21 4 116 4 116 -28 16 c-36 21 -41 35 -24 76 l15 35 43 -20 c38 -17
44 -17 51 -4 9 15 5 63 -8 116 -19 73 38 81 84 12z"/>
</g>
</svg>
